<?xml version="1.0" encoding="UTF-8"?>
<svg width="100px" height="100px" viewBox="0 0 100 100" version="1.1" xmlns="http://www.w3.org/2000/svg" xmlns:xlink="http://www.w3.org/1999/xlink">
    <!-- Generator: Sketch 46.2 (44496) - http://www.bohemiancoding.com/sketch -->
    <title>icon</title>
    <desc>Created with Sketch.</desc>
    <defs></defs>
    <g id="Page-1" stroke="none" stroke-width="1" fill="none" fill-rule="evenodd">
        <g id="icon">
            <g id="Icon" transform="translate(3.000000, 0.000000)">
                <path d="M46.6901313,68.5325572 C20.9473584,68.5325572 0,60.5526111 0,50 C0,39.4473889 20.9473584,31.4674428 46.6901313,31.4674428 C72.4329042,31.4674428 93.3802626,39.4473889 93.3802626,50 C93.3802626,60.5526111 72.4329042,68.5325572 46.6901313,68.5325572 Z M46.6901313,66.1229186 C71.1890468,66.1229186 90.9706241,58.5870797 90.9706241,50 C90.9706241,41.4129203 71.1890468,33.8770814 46.6901313,33.8770814 C22.1912159,33.8770814 2.40963855,41.4129203 2.40963855,50 C2.40963855,58.5870797 22.1912159,66.1229186 46.6901313,66.1229186 Z" id="Oval" fill="#D1C8EA" fill-rule="nonzero"></path>
                <path d="M46.6901313,68.5325572 C20.9473584,68.5325572 0,60.5526111 0,50 C0,39.4473889 20.9473584,31.4674428 46.6901313,31.4674428 C72.4329042,31.4674428 93.3802626,39.4473889 93.3802626,50 C93.3802626,60.5526111 72.4329042,68.5325572 46.6901313,68.5325572 Z M46.6901313,66.1229186 C71.1890468,66.1229186 90.9706241,58.5870797 90.9706241,50 C90.9706241,41.4129203 71.1890468,33.8770814 46.6901313,33.8770814 C22.1912159,33.8770814 2.40963855,41.4129203 2.40963855,50 C2.40963855,58.5870797 22.1912159,66.1229186 46.6901313,66.1229186 Z" id="Oval" fill="#D1C8EA" fill-rule="nonzero" transform="translate(46.690131, 50.000000) rotate(-60.000000) translate(-46.690131, -50.000000) "></path>
                <path d="M46.6901313,68.5325572 C20.9473584,68.5325572 0,60.5526111 0,50 C0,39.4473889 20.9473584,31.4674428 46.6901313,31.4674428 C72.4329042,31.4674428 93.3802626,39.4473889 93.3802626,50 C93.3802626,60.5526111 72.4329042,68.5325572 46.6901313,68.5325572 Z M46.6901313,66.1229186 C71.1890468,66.1229186 90.9706241,58.5870797 90.9706241,50 C90.9706241,41.4129203 71.1890468,33.8770814 46.6901313,33.8770814 C22.1912159,33.8770814 2.40963855,41.4129203 2.40963855,50 C2.40963855,58.5870797 22.1912159,66.1229186 46.6901313,66.1229186 Z" id="Oval" fill="#D1C8EA" fill-rule="nonzero" transform="translate(46.690131, 50.000000) rotate(60.000000) translate(-46.690131, -50.000000) "></path>
                <path d="M47.5290582,63.9458733 C46.2888031,52.7835771 45.2257272,52.2520392 35.4808654,57.7445976 C44.6941893,51.011784 44.6941893,49.7715289 34.9493275,44.2789704 C45.2257272,48.7084531 46.2888031,48.1769151 46.2888031,36.8374396 C47.5290582,48.1769151 48.592134,48.7084531 58.3369958,43.0387153 C49.3008512,49.9487082 49.3008512,51.011784 59.045713,56.6815218 C48.592134,52.0748599 47.5290582,52.7835771 47.5290582,63.9458733 Z" id="Shape" fill="#7D53ED" transform="translate(46.997520, 50.391656) rotate(-268.000000) translate(-46.997520, -50.391656) "></path>
            </g>
        </g>
    </g>
</svg>