<?xml version="1.0" encoding="UTF-8"?>
<svg width="216px" height="100px" viewBox="0 0 216 100" version="1.1" xmlns="http://www.w3.org/2000/svg" xmlns:xlink="http://www.w3.org/1999/xlink">
    <!-- Generator: Sketch 46.2 (44496) - http://www.bohemiancoding.com/sketch -->
    <title>logo</title>
    <desc>Created with Sketch.</desc>
    <defs></defs>
    <g id="Page-1" stroke="none" stroke-width="1" fill="none" fill-rule="evenodd">
        <g id="logo">
            <g id="Logo">
                <g id="Text" transform="translate(108.433735, 16.867470)">
                    <path d="M14.8192771,60.5421687 L9.54216867,60.5421687 L0.0722891566,36.4337349 L4.87951807,36.4337349 L12.1807229,55.9156627 L19.4819277,36.4337349 L24.2891566,36.4337349 L14.8192771,60.5421687 Z M38.9277108,60.5421687 L35.1325301,60.5421687 L35.1325301,58.626506 C33.8313253,60.1445783 31.7710843,60.9759036 29.4578313,60.9759036 C26.6385542,60.9759036 23.4216867,59.0240964 23.4216867,55.1927711 C23.4216867,51.1445783 26.6024096,49.4819277 29.4578313,49.4819277 C31.8433735,49.4819277 33.8313253,50.2409639 35.1325301,51.7228916 L35.1325301,49.1204819 C35.1325301,47.0963855 33.4337349,45.8674699 31.0481928,45.8674699 C29.0963855,45.8674699 27.3614458,46.5903614 25.8795181,48.1084337 L24.2891566,45.4698795 C26.313253,43.5180723 28.8433735,42.6506024 31.626506,42.6506024 C35.5301205,42.6506024 38.9277108,44.2771084 38.9277108,48.939759 L38.9277108,60.5421687 Z M30.9759036,58.373494 C32.6024096,58.373494 34.2289157,57.7590361 35.1325301,56.5662651 L35.1325301,53.8915663 C34.2289157,52.6987952 32.6024096,52.0843373 30.9759036,52.0843373 C28.8433735,52.0843373 27.2168675,53.3493976 27.2168675,55.2289157 C27.2168675,57.1445783 28.8433735,58.373494 30.9759036,58.373494 Z M47.6385542,60.5421687 L47.6385542,36.4337349 L43.8433735,36.4337349 L43.8433735,60.5421687 L47.6385542,60.5421687 Z M68.1325301,60.5421687 L68.1325301,43.0843373 L64.3373494,43.0843373 L64.3373494,55.3373494 C63.4698795,56.4939759 61.8072289,57.6144578 59.8915663,57.6144578 C57.7228916,57.6144578 56.3493976,56.746988 56.3493976,54.0361446 L56.3493976,43.0843373 L52.5542169,43.0843373 L52.5542169,55.4457831 C52.5542169,58.9879518 54.4337349,60.9759036 58.1927711,60.9759036 C60.939759,60.9759036 63.1084337,59.6024096 64.3373494,58.2289157 L64.3373494,60.5421687 L68.1325301,60.5421687 Z M81.1445783,60.9759036 C75.8674699,60.9759036 72,57.3253012 72,51.7951807 C72,46.7349398 75.686747,42.6506024 80.8554217,42.6506024 C86.0963855,42.6506024 89.4216867,46.626506 89.4216867,52.1204819 L89.4216867,53.060241 L75.9759036,53.060241 C76.2650602,55.6626506 78.2168675,57.8674699 81.5060241,57.8674699 C83.2409639,57.8674699 85.2289157,57.1807229 86.4939759,55.9156627 L88.2289157,58.4096386 C86.4578313,60.0722892 83.8915663,60.9759036 81.1445783,60.9759036 Z M85.7710843,50.3493976 C85.6626506,48.2891566 84.253012,45.7590361 80.8192771,45.7590361 C77.6024096,45.7590361 76.0843373,48.253012 75.939759,50.3493976 L85.7710843,50.3493976 Z M99.1807229,60.9759036 C103.879518,60.9759036 106.445783,58.626506 106.445783,55.5180723 C106.445783,48.5783133 95.8915663,50.8915663 95.8915663,47.8192771 C95.8915663,46.5903614 97.1204819,45.6506024 99.1084337,45.6506024 C101.313253,45.6506024 103.228916,46.5903614 104.277108,47.746988 L105.86747,45.0722892 C104.313253,43.6987952 102.072289,42.6506024 99.1084337,42.6506024 C94.6987952,42.6506024 92.2409639,45.0722892 92.2409639,47.9277108 C92.2409639,54.6506024 102.795181,52.1927711 102.795181,55.626506 C102.795181,57 101.60241,57.939759 99.3253012,57.939759 C97.0843373,57.939759 94.6626506,56.7831325 93.4337349,55.5180723 L91.6987952,58.2289157 C93.5060241,60 96.1807229,60.9759036 99.1807229,60.9759036 Z" id="Values" fill="#7D53ED"></path>
                    <path d="M19.626506,27.1084337 L17.1325301,27.1084337 L10.373494,17.1325301 L5.06024096,17.1325301 L5.06024096,27.1084337 L3,27.1084337 L3,3 L12,3 C16.1566265,3 19.3373494,5.63855422 19.3373494,10.0481928 C19.3373494,14.4216867 16.2650602,16.8433735 12.6506024,16.9879518 L19.626506,27.1084337 Z M11.8192771,15.253012 C15.0361446,15.253012 17.1686747,13.0843373 17.1686747,10.0481928 C17.1686747,7.01204819 15.0361446,4.87951807 11.8192771,4.87951807 L5.06024096,4.87951807 L5.06024096,15.253012 L11.8192771,15.253012 Z M31.0481928,27.5421687 C25.9518072,27.5421687 22.3373494,23.746988 22.3373494,18.3614458 C22.3373494,13.3012048 25.8795181,9.21686747 30.7228916,9.21686747 C36.0361446,9.21686747 38.9638554,13.4096386 38.9638554,18.4698795 L38.9638554,18.9759036 L24.3614458,18.9759036 C24.5421687,22.7710843 27.0722892,25.9156627 31.1927711,25.9156627 C33.3975904,25.9156627 35.4216867,25.0843373 36.9036145,23.4939759 L37.8795181,24.7228916 C36.1445783,26.5301205 33.939759,27.5421687 31.0481928,27.5421687 Z M37.0481928,17.4939759 C37.0120482,14.5301205 35.060241,10.8433735 30.686747,10.8433735 C26.5662651,10.8433735 24.5060241,14.4578313 24.3614458,17.4939759 L37.0481928,17.4939759 Z M56.7831325,27.1084337 L54.9036145,27.1084337 L54.9036145,25.0481928 C53.3493976,26.746988 51.3975904,27.5421687 48.9759036,27.5421687 C45.9759036,27.5421687 42.8674699,25.4819277 42.8674699,21.7228916 C42.8674699,17.9277108 45.939759,15.939759 48.9759036,15.939759 C51.3975904,15.939759 53.3855422,16.7349398 54.9036145,18.4337349 L54.9036145,14.8915663 C54.9036145,12.2891566 52.8072289,10.8795181 50.2409639,10.8795181 C48.0361446,10.8795181 46.3373494,11.6385542 44.746988,13.4457831 L43.6987952,12.1445783 C45.5060241,10.1927711 47.5301205,9.21686747 50.4216867,9.21686747 C53.9638554,9.21686747 56.7831325,10.9156627 56.7831325,14.8192771 L56.7831325,27.1084337 Z M49.626506,26.060241 C51.7228916,26.060241 53.6746988,25.2650602 54.9036145,23.6746988 L54.9036145,19.8433735 C53.6746988,18.2168675 51.7228916,17.4216867 49.626506,17.4216867 C46.7710843,17.4216867 44.8554217,19.2650602 44.8554217,21.7590361 C44.8554217,24.2168675 46.7710843,26.060241 49.626506,26.060241 Z M70.1204819,27.5421687 C73.1566265,27.5421687 74.8915663,26.3493976 76.3012048,24.5421687 L75,23.3855422 C73.7349398,25.1204819 72.1445783,25.8433735 70.2289157,25.8433735 C66.1445783,25.8433735 63.6506024,22.5542169 63.6506024,18.3614458 C63.6506024,14.1686747 66.1445783,10.9156627 70.2289157,10.9156627 C72.1445783,10.9156627 73.7349398,11.6024096 75,13.3373494 L76.3012048,12.1807229 C74.8915663,10.4096386 73.1566265,9.21686747 70.1204819,9.21686747 C64.9879518,9.21686747 61.6626506,13.2650602 61.6626506,18.3614458 C61.6626506,23.4578313 64.9879518,27.5421687 70.1204819,27.5421687 Z M84.2891566,27.5421687 C85.7349398,27.5421687 86.5662651,27.1084337 87.253012,26.4578313 L86.5301205,25.0120482 C86.1325301,25.4457831 85.4096386,25.8433735 84.5783133,25.8433735 C83.3493976,25.8433735 82.7710843,24.8674699 82.7710843,23.4578313 L82.7710843,11.313253 L86.313253,11.313253 L86.313253,9.65060241 L82.7710843,9.65060241 L82.7710843,4.87951807 L80.8554217,4.87951807 L80.8554217,9.65060241 L77.9638554,9.65060241 L77.9638554,11.313253 L80.8554217,11.313253 L80.8554217,23.746988 C80.8554217,26.1325301 81.9759036,27.5421687 84.2891566,27.5421687 Z" id="React" fill="#D1C8EA"></path>
                </g>
                <g id="Icon">
                    <path d="M46.6901313,68.5325572 C20.9473584,68.5325572 0,60.5526111 0,50 C0,39.4473889 20.9473584,31.4674428 46.6901313,31.4674428 C72.4329042,31.4674428 93.3802626,39.4473889 93.3802626,50 C93.3802626,60.5526111 72.4329042,68.5325572 46.6901313,68.5325572 Z M46.6901313,66.1229186 C71.1890468,66.1229186 90.9706241,58.5870797 90.9706241,50 C90.9706241,41.4129203 71.1890468,33.8770814 46.6901313,33.8770814 C22.1912159,33.8770814 2.40963855,41.4129203 2.40963855,50 C2.40963855,58.5870797 22.1912159,66.1229186 46.6901313,66.1229186 Z" id="Oval" fill="#D1C8EA" fill-rule="nonzero"></path>
                    <path d="M46.6901313,68.5325572 C20.9473584,68.5325572 0,60.5526111 0,50 C0,39.4473889 20.9473584,31.4674428 46.6901313,31.4674428 C72.4329042,31.4674428 93.3802626,39.4473889 93.3802626,50 C93.3802626,60.5526111 72.4329042,68.5325572 46.6901313,68.5325572 Z M46.6901313,66.1229186 C71.1890468,66.1229186 90.9706241,58.5870797 90.9706241,50 C90.9706241,41.4129203 71.1890468,33.8770814 46.6901313,33.8770814 C22.1912159,33.8770814 2.40963855,41.4129203 2.40963855,50 C2.40963855,58.5870797 22.1912159,66.1229186 46.6901313,66.1229186 Z" id="Oval" fill="#D1C8EA" fill-rule="nonzero" transform="translate(46.690131, 50.000000) rotate(-60.000000) translate(-46.690131, -50.000000) "></path>
                    <path d="M46.6901313,68.5325572 C20.9473584,68.5325572 0,60.5526111 0,50 C0,39.4473889 20.9473584,31.4674428 46.6901313,31.4674428 C72.4329042,31.4674428 93.3802626,39.4473889 93.3802626,50 C93.3802626,60.5526111 72.4329042,68.5325572 46.6901313,68.5325572 Z M46.6901313,66.1229186 C71.1890468,66.1229186 90.9706241,58.5870797 90.9706241,50 C90.9706241,41.4129203 71.1890468,33.8770814 46.6901313,33.8770814 C22.1912159,33.8770814 2.40963855,41.4129203 2.40963855,50 C2.40963855,58.5870797 22.1912159,66.1229186 46.6901313,66.1229186 Z" id="Oval" fill="#D1C8EA" fill-rule="nonzero" transform="translate(46.690131, 50.000000) rotate(60.000000) translate(-46.690131, -50.000000) "></path>
                    <path d="M47.5290582,63.9458733 C46.2888031,52.7835771 45.2257272,52.2520392 35.4808654,57.7445976 C44.6941893,51.011784 44.6941893,49.7715289 34.9493275,44.2789704 C45.2257272,48.7084531 46.2888031,48.1769151 46.2888031,36.8374396 C47.5290582,48.1769151 48.592134,48.7084531 58.3369958,43.0387153 C49.3008512,49.9487082 49.3008512,51.011784 59.045713,56.6815218 C48.592134,52.0748599 47.5290582,52.7835771 47.5290582,63.9458733 Z" id="Shape" fill="#7D53ED" transform="translate(46.997520, 50.391656) rotate(-268.000000) translate(-46.997520, -50.391656) "></path>
                </g>
            </g>
        </g>
    </g>
</svg>